<?xml version="1.0"?>
<svg width="561.9999999999999" height="238" xmlns="http://www.w3.org/2000/svg" xmlns:svg="http://www.w3.org/2000/svg" version="1.1">
 <defs id="defs530">
  <clipPath clipPathUnits="userSpaceOnUse" id="clipPath16">
   <path d="m-2174.02,-483.51l612,0l0,-792l-612,0l0,792z" id="path14"/>
  </clipPath>
 </defs>
 <g class="layer">
  <title>Layer 1</title>
  <g id="g408" opacity="0.2">
   <path d="m19.23,8.74l0,16.67l17.93,-6.74l0,-16.67l-17.93,6.74z" id="path368" stroke="white" stroke-miterlimit="10" stroke-width="1.5"/>
   <path d="m19.23,8.74l0,16.67l-18.23,-6.74l0,-16.67l18.23,6.74z" id="path370" stroke="white" stroke-miterlimit="10" stroke-width="1.5"/>
   <path d="m90.94,8.74l0,16.67l-17.93,-6.74l0,-16.67l17.93,6.74z" id="path372" stroke="white" stroke-miterlimit="10" stroke-width="1.5"/>
   <path d="m127.4,8.74l0,16.67l17.93,-6.74l0,-16.67l-17.93,6.74z" id="path374" stroke="white" stroke-miterlimit="10" stroke-width="1.5"/>
   <path d="m19.23,25.54l0,16.68l-18.23,-6.74l0,-16.67l18.23,6.73z" id="path376" stroke="white" stroke-miterlimit="10" stroke-width="1.5"/>
   <path d="m19.23,58.73l0,17.12l17.93,-6.92l0,-17.1l-17.93,6.9z" id="path378" stroke="white" stroke-miterlimit="10" stroke-width="1.5"/>
   <path d="m55.39,25.54l0,16.68l17.62,-6.74l0,-16.67l-17.62,6.73z" id="path380" stroke="white" stroke-miterlimit="10" stroke-width="1.5"/>
   <path d="m90.94,42.28l0,16.46l-17.93,-6.65l0,-16.47l17.93,6.66z" id="path382" stroke="white" stroke-miterlimit="10" stroke-width="1.5"/>
   <path d="m90.94,96.04l0,16.46l-17.93,-6.64l0,-16.47l17.93,6.65z" id="path384" stroke="white" stroke-miterlimit="10" stroke-width="1.5"/>
   <path d="m55.39,25.64l0,16.88l-18.23,-6.81l0,-16.9l18.23,6.83z" id="path386" stroke="white" stroke-miterlimit="10" stroke-width="1.5"/>
   <path d="m55.39,42.37l0,16.67l-18.23,-6.73l0,-16.69l18.23,6.75z" id="path388" stroke="white" stroke-miterlimit="10" stroke-width="1.5"/>
   <path d="m127.4,42.28l0,16.46l17.93,-6.65l0,-16.47l-17.93,6.66z" id="path390" stroke="white" stroke-miterlimit="10" stroke-width="1.5"/>
   <path d="m163.25,25.54l0,16.68l-17.92,-6.74l0,-16.67l17.92,6.73z" id="path392" stroke="white" stroke-miterlimit="10" stroke-width="1.5"/>
   <path d="m127.4,75.47l0,16.89l17.93,-6.82l0,-16.9l-17.93,6.83z" id="path394" stroke="white" stroke-miterlimit="10" stroke-width="1.5"/>
   <path d="m163.25,42.22l0,17.12l-17.92,-6.92l0,-16.95l17.92,6.75z" id="path396" stroke="white" stroke-miterlimit="10" stroke-width="1.5"/>
   <path d="m90.93,58.73l0,17.12l17.93,-6.92l0,-17.1l-17.93,6.9z" id="path398" stroke="white" stroke-miterlimit="10" stroke-width="1.5"/>
   <path d="m199.41,25.54l0,16.68l-18.23,-6.74l0,-16.67l18.23,6.73z" id="path400" stroke="white" stroke-miterlimit="10" stroke-width="1.5"/>
   <path d="m127.4,25.54l0,16.68l-18.54,-6.74l0,-16.67l18.54,6.73z" id="path402" stroke="white" stroke-miterlimit="10" stroke-width="1.5"/>
   <path d="m199.41,58.73l0,17.12l-18.23,-6.92l0,-17.1l18.23,6.9z" id="path404" stroke="white" stroke-miterlimit="10" stroke-width="1.5"/>
   <path d="m163.25,8.66l0,16.45l17.93,-6.64l0,-16.47l-17.93,6.66z" id="path406" stroke="white" stroke-miterlimit="10" stroke-width="1.5"/>
  </g>
  <g id="g458" opacity="0.2">
   <path d="m235.75,8.74l0,16.67l17.93,-6.74l0,-16.67l-17.93,6.74z" id="path410" stroke="white" stroke-miterlimit="10" stroke-width="1.5"/>
   <path d="m235.75,8.74l0,16.67l-18.23,-6.74l0,-16.67l18.23,6.74z" id="path412" stroke="white" stroke-miterlimit="10" stroke-width="1.5"/>
   <path d="m307.45,8.74l0,16.67l-17.93,-6.74l0,-16.67l17.93,6.74z" id="path414" stroke="white" stroke-miterlimit="10" stroke-width="1.5"/>
   <path d="m343.92,8.74l0,16.67l17.93,-6.74l0,-16.67l-17.93,6.74z" id="path416" stroke="white" stroke-miterlimit="10" stroke-width="1.5"/>
   <path d="m199.59,42.28l0,16.46l17.93,-6.65l0,-16.47l-17.93,6.66z" id="path418" stroke="white" stroke-miterlimit="10" stroke-width="1.5"/>
   <path d="m235.75,25.54l0,16.68l-18.23,-6.74l0,-16.67l18.23,6.73z" id="path420" stroke="white" stroke-miterlimit="10" stroke-width="1.5"/>
   <path d="m235.75,58.73l0,17.12l17.93,-6.92l0,-17.1l-17.93,6.9z" id="path422" stroke="white" stroke-miterlimit="10" stroke-width="1.5"/>
   <path d="m271.91,25.54l0,16.68l17.62,-6.74l0,-16.67l-17.62,6.73z" id="path424" stroke="white" stroke-miterlimit="10" stroke-width="1.5"/>
   <path d="m307.45,42.28l0,16.46l-17.93,-6.65l0,-16.47l17.93,6.66z" id="path426" stroke="white" stroke-miterlimit="10" stroke-width="1.5"/>
   <path d="m307.45,76.84l0,16.46l-17.93,-6.64l0,-16.47l17.93,6.65z" id="path428" stroke="white" stroke-miterlimit="10" stroke-width="1.5"/>
   <path d="m271.91,25.64l0,16.88l-18.24,-6.81l0,-16.9l18.24,6.83z" id="path430" stroke="white" stroke-miterlimit="10" stroke-width="1.5"/>
   <path d="m271.91,42.37l0,16.67l-18.24,-6.73l0,-16.69l18.24,6.75z" id="path432" stroke="white" stroke-miterlimit="10" stroke-width="1.5"/>
   <path d="m343.92,42.28l0,16.46l17.93,-6.65l0,-16.47l-17.93,6.66z" id="path434" stroke="white" stroke-miterlimit="10" stroke-width="1.5"/>
   <path d="m379.77,25.54l0,16.68l-17.93,-6.74l0,-16.67l17.93,6.73z" id="path436" stroke="white" stroke-miterlimit="10" stroke-width="1.5"/>
   <path d="m343.92,75.47l0,16.89l17.93,-6.82l0,-16.9l-17.93,6.83z" id="path438" stroke="white" stroke-miterlimit="10" stroke-width="1.5"/>
   <path d="m379.77,42.22l0,17.12l-17.93,-6.92l0,-16.95l17.93,6.75z" id="path440" stroke="white" stroke-miterlimit="10" stroke-width="1.5"/>
   <path d="m307.45,58.73l0,17.12l17.93,-6.92l0,-17.1l-17.93,6.9z" id="path442" stroke="white" stroke-miterlimit="10" stroke-width="1.5"/>
   <path d="m415.93,25.54l0,16.68l-18.24,-6.74l0,-16.67l18.24,6.73z" id="path444" stroke="white" stroke-miterlimit="10" stroke-width="1.5"/>
   <path d="m379.77,58.75l0,17.1l17.93,-6.91l0,-17.11l-17.93,6.92z" id="path446" stroke="white" stroke-miterlimit="10" stroke-width="1.5"/>
   <path d="m379.77,98.38l0,17.1l17.92,-6.9l0,-17.11l-17.92,6.91z" id="path448" stroke="white" stroke-miterlimit="10" stroke-width="1.5"/>
   <path d="m343.92,25.54l0,16.68l-18.55,-6.74l0,-16.67l18.55,6.73z" id="path450" stroke="white" stroke-miterlimit="10" stroke-width="1.5"/>
   <path d="m415.93,58.73l0,17.12l-18.24,-6.92l0,-17.1l18.24,6.9z" id="path452" stroke="white" stroke-miterlimit="10" stroke-width="1.5"/>
   <path d="m455.53,113.52l0,17.12l-18.23,-6.92l0,-17.1l18.23,6.9z" id="path454" stroke="white" stroke-miterlimit="10" stroke-width="1.5"/>
   <path d="m379.77,8.66l0,16.45l17.93,-6.64l0,-16.47l-17.93,6.66z" id="path456" stroke="white" stroke-miterlimit="10" stroke-width="1.5"/>
  </g>
  <g id="g470" opacity="0.5">
   <g id="g468" opacity="0.2">
    <path d="m452.92,8.74l0,16.67l-18.23,-6.74l0,-16.67l18.23,6.74z" id="path460" stroke="white" stroke-miterlimit="10" stroke-width="1.5"/>
    <path d="m416.76,42.28l0,16.46l17.93,-6.65l0,-16.47l-17.93,6.66z" id="path462" stroke="white" stroke-miterlimit="10" stroke-width="1.5"/>
    <path d="m416.76,75.23l0,16.46l17.93,-6.64l0,-16.47l-17.93,6.65z" id="path464" stroke="white" stroke-miterlimit="10" stroke-width="1.5"/>
    <path d="m452.92,25.54l0,16.68l-18.23,-6.74l0,-16.67l18.23,6.73z" id="path466" stroke="white" stroke-miterlimit="10" stroke-width="1.5"/>
   </g>
  </g>
  <g id="g498" opacity="0.2">
   <path d="m452.83,8.74l0,16.67l17.93,-6.74l0,-16.67l-17.93,6.74z" id="path472" stroke="white" stroke-miterlimit="10" stroke-width="1.5"/>
   <path d="m452.83,8.74l0,16.67l-18.23,-6.74l0,-16.67l18.23,6.74z" id="path474" stroke="white" stroke-miterlimit="10" stroke-width="1.5"/>
   <path d="m524.53,8.74l0,16.67l-17.92,-6.74l0,-16.67l17.92,6.74z" id="path476" stroke="white" stroke-miterlimit="10" stroke-width="1.5"/>
   <path d="m452.83,25.54l0,16.68l-18.23,-6.74l0,-16.67l18.23,6.73z" id="path478" stroke="white" stroke-miterlimit="10" stroke-width="1.5"/>
   <path d="m452.83,58.73l0,17.12l17.93,-6.92l0,-17.1l-17.93,6.9z" id="path480" stroke="white" stroke-miterlimit="10" stroke-width="1.5"/>
   <path d="m488.99,25.54l0,16.68l17.62,-6.74l0,-16.67l-17.62,6.73z" id="path482" stroke="white" stroke-miterlimit="10" stroke-width="1.5"/>
   <path d="m524.53,42.28l0,16.46l-17.92,-6.65l0,-16.47l17.92,6.66z" id="path484" stroke="white" stroke-miterlimit="10" stroke-width="1.5"/>
   <path d="m524.53,96.04l0,16.46l-17.92,-6.64l0,-16.47l17.92,6.65z" id="path486" stroke="white" stroke-miterlimit="10" stroke-width="1.5"/>
   <path d="m488.99,25.64l0,16.88l-18.23,-6.81l0,-16.9l18.23,6.83z" id="path488" stroke="white" stroke-miterlimit="10" stroke-width="1.5"/>
   <path d="m488.99,42.37l0,16.67l-18.23,-6.73l0,-16.69l18.23,6.75z" id="path490" stroke="white" stroke-miterlimit="10" stroke-width="1.5"/>
   <path d="m524.53,58.73l0,17.12l17.93,-6.92l0,-17.1l-17.93,6.9z" id="path492" stroke="white" stroke-miterlimit="10" stroke-width="1.5"/>
   <path d="m561,25.54l0,16.68l-18.54,-6.74l0,-16.67l18.54,6.73z" id="path494" stroke="white" stroke-miterlimit="10" stroke-width="1.5"/>
   <path d="m561,77.51l0,16.68l-18.54,-6.74l0,-16.67l18.54,6.73z" id="path496" stroke="white" stroke-miterlimit="10" stroke-width="1.5"/>
  </g>
  <g display="inline" id="g10" transform="matrix(0.191948 0 0 -0.190444 434.777 -0.498219)">
   <g clip-path="url(#clipPath16)" id="g12">
    <g id="g18">
     <path d="m-2114.29,-1160.16c53.33,-53.28 126.7,-86.32 207.74,-86.65c164.05,-0.66 298.36,134.38 297.7,299.34c-0.32,81.5 -33.17,155.27 -86.17,208.9l-419.27,-421.59z" fill="#292826" fill-rule="nonzero" id="path20"/>
    </g>
    <g id="g22" transform="translate(479.002 536.942)">
     <path d="m-2174.02,-1275.51l-419.27,-421.59c0.29,-0.3 0.6,-0.59 0.9,-0.88c146.9,74.92 348.03,206.58 486.01,316.29c-14.88,40.21 -38.13,76.32 -67.64,106.18" fill="#eb3949" fill-rule="nonzero" id="path24"/>
    </g>
    <g id="g26">
     <path d="m-1776.98,-528.51c-163.74,0 -296.48,-133.47 -296.48,-298.12c0,-81.98 32.91,-156.22 86.17,-210.12l419.27,421.59c-53.6,53.55 -127.43,86.65 -208.96,86.65" fill="#3f3f3f" fill-rule="nonzero" id="path28"/>
    </g>
    <g id="g30" transform="translate(397.037 747)">
     <path d="m-2174.02,-1275.51c-56.71,0 -109.7,-16.02 -154.75,-43.8c-24.13,6.32 -54.06,11.37 -88.44,11.16c-59.94,-0.37 -108.71,-16.6 -141.82,-31.78c-8.22,-3.77 -6.9,-15.97 1.94,-17.83c21.8,-4.6 50.5,-14.33 78.88,-35.28c17.93,-13.24 31.58,-27.89 41.86,-41.6c-21.79,-41.5 -34.15,-88.79 -34.15,-138.99c0,-29.95 4.41,-58.87 12.58,-86.14c12.54,27.79 25.7,46.39 29.92,52.19c27.23,37.41 56.01,56.88 98.54,85.65c31.33,21.19 74.86,46.04 199.92,97.45c0,0 39.12,11.01 91.58,42.21c20.92,12.43 36.83,24.17 41.87,42.52c0.35,1.3 0.67,2.57 0.97,3.83c-49.72,37.9 -111.69,60.41 -178.9,60.41" fill="#262523" fill-rule="nonzero" id="path32"/>
    </g>
    <g id="g34" transform="translate(446.556 646.804)">
     <path d="m-2174.02,-1275.51c10.88,-19.23 -10.89,-52.3 -48.62,-73.88c-37.72,-21.57 -77.12,-23.47 -88,-4.24c-10.87,19.22 10.9,52.3 48.62,73.87c37.73,21.58 77.12,23.48 88,4.25" fill="#ffffff" fill-rule="nonzero" id="path36"/>
    </g>
   </g>
  </g>
  <g fill="#f9f9f9" fill-opacity="0.8" fill-rule="evenodd" font-size="31.85px" id="text835" stroke="#1a1a1a" stroke-width="1.19" transform="matrix(1 0 0 1 0 0)">
   <path d="m158.6,236.04q-6.05,0 -10.6,-1.4q-4.51,-1.38 -7.16,-4.17q-2.57,-2.82 -2.82,-6.93q-0.06,-1.9 -0.06,-4.03q0,-2.13 0.06,-4.12q0.25,-4.06 2.82,-6.89q2.59,-2.83 7.16,-4.29q4.54,-1.48 10.6,-1.48q6.03,0 10.58,1.48q4.56,1.47 7.16,4.29q2.65,2.82 2.82,6.89q0.13,1.99 0.13,4.12q0,2.12 -0.13,4.03q-0.23,4.11 -2.88,6.93q-2.59,2.79 -7.16,4.17q-4.49,1.4 -10.52,1.4zm0,-9.02q2.03,0 3.25,-0.88q1.24,-0.93 1.29,-2.86q0.13,-1.99 0.13,-3.94q0,-1.94 -0.13,-3.83q-0.06,-1.31 -0.68,-2.13q-0.54,-0.83 -1.53,-1.2q-0.98,-0.41 -2.35,-0.41q-1.29,0 -2.35,0.41q-0.98,0.37 -1.6,1.2q-0.56,0.83 -0.62,2.13q-0.06,1.89 -0.06,3.83q0,1.94 0.06,3.94q0.11,1.93 1.29,2.86q1.22,0.88 3.27,0.88l0.02,0l0.01,0z" id="path926"/>
   <path d="m185.88,235.58q-0.68,0 -1.16,-0.37q-0.5,-0.37 -0.5,-0.86l0,-21.56q0,-0.51 0.5,-0.88q0.48,-0.37 1.16,-0.37l10.79,0q0.68,0 1.16,0.37q0.5,0.37 0.5,0.88l0,1.61q1.97,-1.3 4.38,-2.08q2.46,-0.79 5.24,-0.79l2.93,0q0.68,0 1.18,0.37q0.48,0.37 0.48,0.88l0,7.21q0,0.51 -0.48,0.86q-0.5,0.37 -1.18,0.37l-7.93,0q-1.86,0 -2.78,0.68q-0.92,0.7 -0.92,2.08l0,10.32q0,0.51 -0.48,0.86q-0.48,0.37 -1.18,0.37l-11.7,0l0,0.02l-0.01,0.01z" id="path928"/>
   <path d="m232.43,236.04q-4.68,0 -8.49,-1.2q-3.83,-1.25 -6.16,-3.61q-2.35,-2.35 -2.59,-5.77q-0.06,-0.74 -0.06,-1.84q0,-1.11 0.06,-1.9q0.25,-3.41 2.53,-5.77q2.35,-2.39 6.14,-3.6q3.89,-1.25 8.57,-1.25q4.87,0 8.26,1.06q3.44,1.02 5.53,2.54q2.16,1.48 3.16,2.97q1.05,1.48 1.11,2.41q0.06,0.51 -0.48,0.86q-0.5,0.37 -1.18,0.37l-12.01,0q-0.68,0 -1.11,-0.23q-0.37,-0.27 -0.68,-0.7q-0.43,-0.65 -0.92,-1.02q-0.43,-0.37 -1.35,-0.37q-1.41,0 -1.92,0.8q-0.48,0.79 -0.54,2.16q-0.07,1.99 0,3.29q0.11,1.48 0.54,2.23q0.5,0.7 1.92,0.7q1.11,0 1.47,-0.37q0.45,-0.37 0.81,-1.03q0.25,-0.41 0.68,-0.64q0.43,-0.27 1.11,-0.27l12.01,0q0.68,0 1.18,0.37q0.54,0.37 0.48,0.88q-0.06,0.6 -0.68,1.71q-0.56,1.06 -1.84,2.31q-1.24,1.25 -3.32,2.39q-2.1,1.11 -5.13,1.85q-3.02,0.7 -7.08,0.7l-0.01,0.01l-0.01,-0.02z" id="path930"/>
   <path d="m264.65,236.04q-3.52,0 -6.22,-0.97q-2.71,-0.97 -4.25,-2.64q-1.47,-1.65 -1.47,-3.75q0,-3.36 3.64,-5.27q3.7,-1.94 9.84,-2.73l6.54,-0.79l0,-0.04q0,-1.2 -0.31,-1.76q-0.25,-0.56 -1.55,-0.56q-0.85,0 -1.41,0.27q-0.48,0.23 -1.11,0.7q-0.68,0.51 -1.72,0.51l-10.48,0q-0.62,0 -1.05,-0.27q-0.37,-0.29 -0.31,-0.74q0.06,-0.88 0.98,-2.05q0.92,-1.19 2.84,-2.31q1.96,-1.1 4.99,-1.84q3.08,-0.74 7.38,-0.74q4.17,0 7.25,0.7q3.16,0.64 5.19,1.93q2.03,1.25 3.02,3.15q1.05,1.84 1.05,4.21l0,13.28q0,0.51 -0.48,0.86q-0.5,0.37 -1.18,0.37l-10.77,0q-0.68,0 -1.18,-0.37q-0.48,-0.37 -0.48,-0.86l0,-1.3q-0.87,0.91 -2.22,1.61q-1.29,0.65 -2.95,1.02q-1.67,0.37 -3.56,0.37l0.01,0l0,-0.01zm4.23,-6.85q1.24,0 2.1,-0.37q0.9,-0.37 1.41,-1.16q0.48,-0.83 0.48,-2.04l0,-0.04l-3.61,0.6q-1.6,0.27 -2.16,0.74q-0.56,0.47 -0.56,0.97q0,0.32 0.25,0.65q0.31,0.27 0.81,0.47q0.54,0.17 1.28,0.17z" id="path932"/>
  </g>
  <g fill="#f9f9f9" font-size="22.88px" id="text1443" stroke="#1a1a1a" stroke-width="0.86" text-anchor="middle">
   <path d="m308.47,236.11q-6.25,0 -10.31,-1.46q-4.07,-1.45 -6.08,-3.82q-2.02,-2.37 -2.14,-5.04q0,-0.45 0.34,-0.74q0.39,-0.34 0.89,-0.34l10.71,0q0.91,0 1.36,0.25q0.51,0.18 1.08,0.57q0.54,0.34 1.1,0.64q0.63,0.23 1.36,0.38q0.79,0.1 1.7,0.1q1.92,0 3.03,-0.34q1.2,-0.38 1.2,-1.02q0,-0.6 -0.7,-0.97q-0.61,-0.38 -2.18,-0.68q-1.57,-0.34 -4.41,-0.64q-4.42,-0.53 -7.7,-1.78q-3.28,-1.28 -5.08,-3.45q-1.75,-2.23 -1.75,-5.43q0,-3.3 2.14,-5.82q2.18,-2.52 6.03,-3.92q3.89,-1.4 9.01,-1.4q4.23,0 7.49,0.95q3.28,0.93 5.51,2.48q2.27,1.5 3.45,3.24q1.18,1.76 1.23,3.34q0,0.45 -0.39,0.78q-0.32,0.29 -0.79,0.29l-11.24,0q-0.79,0 -1.3,-0.21q-0.44,-0.18 -0.95,-0.57q-0.28,-0.23 -1.06,-0.53q-0.74,-0.34 -1.92,-0.34q-1.4,0 -2.09,0.38q-0.61,0.34 -0.61,0.97q0,0.43 0.51,0.82q0.49,0.38 1.84,0.68q1.36,0.29 3.89,0.57q5.64,0.6 9.01,1.88q3.45,1.28 4.95,3.41q1.61,2.13 1.61,5.27q0,3.54 -2.48,6.1q-2.43,2.58 -6.64,3.98q-4.23,1.36 -9.57,1.36l-0.04,0.02l-0.01,0.02z" fill="#eb4949" id="path935"/>
   <path d="m332.22,235.61q-0.61,0 -1.06,-0.38q-0.44,-0.38 -0.44,-0.93l0,-31.8q0,-0.53 0.44,-0.91q0.44,-0.38 1.06,-0.38l10.1,0q0.61,0 1.08,0.38q0.44,0.38 0.44,0.91l0,31.8q0,0.56 -0.44,0.93q-0.47,0.38 -1.08,0.38l-10.1,0z" fill="#eb4949" id="path937"/>
   <path d="m353.45,235.61q-0.61,0 -1.06,-0.38q-0.47,-0.38 -0.47,-0.93l0,-22.59q0,-0.53 0.47,-0.91q0.44,-0.39 1.06,-0.39l10.1,0q0.61,0 1.06,0.39q0.44,0.38 0.44,0.91l0,22.59q0,0.56 -0.44,0.93q-0.44,0.38 -1.06,0.38l-10.1,0zm0.29,-27.86q-0.63,0 -1.08,-0.39q-0.44,-0.38 -0.44,-0.91l0,-5.87q0,-0.53 0.44,-0.93q0.44,-0.38 1.08,-0.38l9.5,0q0.61,0 1.08,0.38q0.44,0.39 0.44,0.93l0,5.87q0,0.53 -0.44,0.91q-0.47,0.39 -1.08,0.39l-9.5,0z" fill="#eb4949" id="path939"/>
   <path d="m385.5,236.11q-4.28,0 -7.77,-1.25q-3.5,-1.32 -5.64,-3.8q-2.12,-2.48 -2.37,-6.06q-0.05,-0.78 -0.05,-1.92q0,-1.16 0.05,-1.99q0.25,-3.6 2.31,-6.06q2.14,-2.52 5.64,-3.8q3.54,-1.32 7.83,-1.32q4.45,0 7.55,1.12q3.15,1.06 5.08,2.66q1.96,1.55 2.85,3.09q0.95,1.57 1.01,2.52q0.08,0.56 -0.44,0.93q-0.44,0.38 -1.06,0.38l-11,0q-0.61,0 -1.01,-0.23q-0.32,-0.29 -0.61,-0.74q-0.39,-0.68 -0.84,-1.06q-0.39,-0.38 -1.25,-0.38q-1.28,0 -1.72,0.82q-0.47,0.82 -0.51,2.27q-0.05,2.1 0,3.45q0.13,1.55 0.51,2.31q0.44,0.74 1.72,0.74q1.04,0 1.36,-0.39q0.39,-0.38 0.74,-1.06q0.22,-0.43 0.61,-0.68q0.39,-0.29 1.01,-0.29l11,0q0.61,0 1.06,0.39q0.51,0.38 0.44,0.91q-0.05,0.64 -0.61,1.8q-0.49,1.1 -1.67,2.41q-1.13,1.32 -3.05,2.52q-1.92,1.16 -4.68,1.95q-2.75,0.72 -6.47,0.72l-0.01,0.03l-0.01,0.01z" fill="#eb4949" id="path941"/>
   <path d="m420.74,236.11q-7.36,0 -11.77,-3.09q-4.33,-3.16 -4.33,-9.93q0,-0.1 0,-0.21q0,-0.08 0,-0.13q0.13,-4.18 2.09,-7.03q2.02,-2.87 5.56,-4.32q3.62,-1.46 8.4,-1.46q5.51,0 9.06,1.84q3.57,1.8 5.24,4.81q1.75,2.97 1.75,6.55l0,1.45q0,0.56 -0.44,0.93q-0.44,0.38 -1.08,0.38l-16.76,0q0,0.06 0,0.1q0,0.04 0,0.14q0,0.95 0.15,1.63q0.25,0.64 0.74,0.97q0.51,0.34 1.3,0.34q0.34,0 0.57,-0.08q0.28,-0.1 0.49,-0.29q0.29,-0.23 0.57,-0.49q0.51,-0.45 0.84,-0.53q0.34,-0.14 1.04,-0.14l10.63,0q0.57,0 0.91,0.29q0.39,0.29 0.32,0.76q-0.05,0.93 -1.01,2.24q-0.89,1.25 -2.75,2.45q-1.84,1.24 -4.73,2.03q-2.88,0.78 -6.77,0.78l0,-0.01l-0.02,0zm-2.29,-16.3l4.51,0l0,-0.04q0,-1.06 -0.29,-1.74q-0.22,-0.68 -0.74,-0.97q-0.49,-0.34 -1.23,-0.34q-0.74,0 -1.23,0.34q-0.51,0.29 -0.79,0.97q-0.22,0.68 -0.22,1.74l0,0.04l0.01,0l-0.01,0z" fill="#eb4949" id="path943"/>
   <path d="m442.19,235.61q-0.61,0 -1.06,-0.38q-0.47,-0.38 -0.47,-0.93l0,-22.59q0,-0.53 0.47,-0.91q0.44,-0.39 1.06,-0.39l9.87,0q0.61,0 1.06,0.39q0.44,0.38 0.44,0.91l0,1.7q1.82,-1.36 4.02,-2.19q2.24,-0.82 4.78,-0.82l2.71,0q0.61,0 1.08,0.39q0.44,0.38 0.44,0.91l0,7.56q0,0.53 -0.44,0.93q-0.47,0.38 -1.08,0.38l-7.26,0q-1.7,0 -2.53,0.72q-0.84,0.72 -0.84,2.19l0,10.81q0,0.56 -0.47,0.93q-0.44,0.38 -1.06,0.38l-10.71,0l0,-0.01z" fill="#eb4949" id="path945"/>
   <path d="m511.51,236.04q-4.01,0 -6.42,-1.58q-2.36,-1.62 -2.36,-5.09q0,-0.06 0,-0.1q0,-0.05 0,-0.07q0.06,-2.15 1.14,-3.59q1.1,-1.47 3.03,-2.22q1.97,-0.75 4.57,-0.75q3,0 4.93,0.94q1.95,0.92 2.85,2.47q0.95,1.52 0.95,3.35l0,0.74q0,0.28 -0.24,0.48q-0.24,0.2 -0.6,0.2l-9.13,0q0,0.03 0,0.06q0,0.02 0,0.08q0,0.49 0.08,0.84q0.14,0.32 0.4,0.5q0.28,0.17 0.71,0.17q0.19,0 0.3,-0.05q0.15,-0.06 0.27,-0.15q0.16,-0.12 0.3,-0.24q0.28,-0.23 0.46,-0.26q0.19,-0.08 0.56,-0.08l5.79,0q0.3,0 0.5,0.15q0.21,0.15 0.18,0.39q-0.02,0.48 -0.55,1.15q-0.49,0.64 -1.51,1.26q-1.01,0.63 -2.57,1.03q-1.57,0.39 -3.68,0.39l0.01,0l0.01,-0.02zm-1.25,-8.34l2.46,0l0,-0.02q0,-0.55 -0.16,-0.88q-0.12,-0.34 -0.4,-0.5q-0.27,-0.17 -0.67,-0.17q-0.4,0 -0.67,0.17q-0.28,0.15 -0.42,0.5q-0.12,0.34 -0.12,0.88l0,0.02l-0.02,0z" fill="#eb4949" id="svg_10"/>
   <path d="m529.78,236.06q-2.31,0 -4.19,-0.63q-1.89,-0.66 -3.04,-1.91q-1.14,-1.25 -1.28,-3.05q-0.03,-0.39 -0.03,-0.96q0,-0.58 0.03,-1q0.14,-1.81 1.25,-3.05q1.15,-1.27 3.04,-1.91q1.91,-0.66 4.22,-0.66q2.4,0 4.07,0.57q1.7,0.54 2.73,1.35q1.06,0.77 1.54,1.56q0.51,0.79 0.55,1.27q0.05,0.27 -0.24,0.47q-0.24,0.19 -0.57,0.19l-5.93,0q-0.33,0 -0.55,-0.11q-0.17,-0.15 -0.33,-0.37q-0.21,-0.34 -0.45,-0.54q-0.21,-0.19 -0.68,-0.19q-0.69,0 -0.93,0.42q-0.26,0.42 -0.28,1.13q-0.03,1.05 0,1.74q0.06,0.77 0.28,1.16q0.24,0.37 0.93,0.37q0.56,0 0.73,-0.2q0.21,-0.19 0.4,-0.54q0.12,-0.21 0.33,-0.34q0.21,-0.15 0.55,-0.15l5.93,0q0.33,0 0.57,0.2q0.28,0.19 0.24,0.46q-0.03,0.31 -0.33,0.91q-0.27,0.56 -0.91,1.21q-0.61,0.66 -1.64,1.27q-1.04,0.58 -2.52,0.98q-1.49,0.36 -3.5,0.36z" fill="#eb4949" id="svg_11"/>
   <path d="m532.2,236.08q-0.37,0 -0.61,-0.21q-0.26,-0.21 -0.26,-0.5l0,-17.07q0,-0.28 0.26,-0.49q0.26,-0.21 0.61,-0.21l5.87,0q0.37,0 0.63,0.21q0.26,0.21 0.26,0.49l0,17.07q0,0.3 -0.26,0.5q-0.28,0.21 -0.63,0.21l-5.87,0z" fill="#eb4949" id="svg_12"/>
   <path d="m488.32,236.04q-0.33,0 -0.59,-0.19q-0.25,-0.19 -0.25,-0.47l0,-11.22q0,-0.27 0.25,-0.45q0.24,-0.2 0.59,-0.2l5.45,0q0.33,0 0.59,0.2q0.24,0.19 0.24,0.45l0,0.84q1,-0.67 2.21,-1.09q1.23,-0.41 2.63,-0.41l1.49,0q0.33,0 0.6,0.2q0.24,0.19 0.24,0.45l0,3.76q0,0.27 -0.24,0.47q-0.25,0.19 -0.6,0.19l-4,0q-0.94,0 -1.39,0.36q-0.46,0.36 -0.46,1.09l0,5.37q0,0.28 -0.25,0.47q-0.24,0.19 -0.59,0.19l-5.91,0l0.01,0l-0.01,0z" fill="#eb4949" id="svg_13"/>
  </g>
 </g>
</svg>